<?xml version="1.0" encoding="UTF-8"?>
<svg viewBox="0 0 273 510" xmlns="http://www.w3.org/2000/svg">
  <defs>
    <!-- Define parameters -->
    <param name="fill" type="color" value="#0000FF"/>
    <param name="outline" type="color" value="#FFFFFF"/>
  </defs>
  <g transform="matrix(.4878 0 0 .4878 -44.987 -1.6738)">
    <!-- Your path element with editable fill -->
    <path d="m413.53 1038.7s9.609-370.17 10.798-400.8c1.6425-42.315 10.786-239.48 10.724-243.35-0.10946-6.7844-0.1772-7.025-1.9799-7.025-5.87 0.7604-11.208 3.7327-17.096 4.4193-8.1766-1.775-15.898-6.1686-22.786-10.851-4.1998-4.7482-1.5372-12.685 0.65941-18.439 0.49319-1.292 2.4766-5.0948 3.6797-8.8481 6.8317-21.312 5.9383-19.407 10.128-21.591 6.9488-2.2128 13.508 3.352 18.83 7.4722l2.927 2.3395c7.8663-3.0634 16.282-4.5176 23.94-8.0841 0.19311-0.13275-1.2519-1.8805-3.2112-3.8839-3.2013-3.2727-9.5379-7.4246-21.858-14.322-2.3014-1.2883-26.119-19.606-32.882-25.919-7.6804-7.1695-14.806-14.371-33.124-33.477-23.401-24.408-35.333-36.249-88.934-88.258-5.839-5.6656-49.302-45.09-53.41-48.795-7.5627-6.8228-109.14-94.024-111.83-96.383-5.3787-4.7113-6.5752-6.3751-5.8826-8.1801 1.1737-3.0585 12.572 1.0262 23.392 8.3827 3.1862 2.1664 105.82 82.595 111.82 87.288 2.8703 2.2423 61.225 51.118 64.629 53.537 3.878 2.7554 60.869 52.164 67.033 58.006 3.378 3.2014 79.657 70.448 93.368 82.732 7.1875 6.439 12.181 10.282 14.357 11.05 1.8345 0.64734 3.7283 1.4812 4.2077 1.8531s1.7053 0.88039 2.7232 1.13c2.3228 0.56958 6.9666-3.2752 7.7564-6.4217 1.0344-4.121 12.352-26.329 15.417-30.252 5.1991-6.6549 50.224-44.535 54.506-47.847s52.088-40.917 53.815-42.354c13.816-11.498 22.505-18.098 24.362-18.505 1.6068-0.35202 2.435 1.3848 2.4489 5.1364 0.01509 4.0022-4.0665 10.723-11.727 19.312-2.816 3.1569-46.503 54.515-49.491 57.634s-45.887 51.201-54.641 59.971l-15.917 15.946-0.70083 4.6185c-1.264 8.3316-1.9884 10.302-5.006 13.617-1.9681 2.3889-2.2421 5.3401-1.8523 8.3621 0.33081 2.566 1.4541 8.9694 3.2688 15.557 0.60839 2.2078 17.01 63.864 17.592 66.637 0.7096 3.3794 42.123 125.18 43.047 128.05s35.909 129.24 36.475 131.67c10.118 37.023 18.139 74.577 26.635 112 0.90903 4.2092 2.5987 14.908 3.4213 22.495-0.06995 0.73024-0.45122 1.1893-1.1518 1.1893-0.67644 0-1.4349-0.63207-1.6856-1.405s-1.7226-4.6565-3.2702-8.6305c-3.7478-9.6239-6.9494-19.495-9.8539-30.38-1.315-4.9281-22.744-80.313-24.948-88.041s-39.41-130-41.719-137.29c-11.449-36.12-42.847-127.33-47.395-137.69-7.7199-18.461-14.359-37.372-22.511-55.651-2.5735-5.531-3.931-7.1491-5.7246-8.4195-1.7478-1.238-3.5321-2.133-3.9647-1.9888s-1.7585 2.6023-2.9463 5.4624c-2.134 5.139-2.1562 5.3845-1.8806 20.856 0.15361 8.6106 11.231 232.64 11.424 245.67l5.9029 400.62-69.91 0.0639z" fill="rgba(255,129,142,1.0)"/>
  </g>
</svg>